<?xml version="1.0" encoding="utf-8"?>
<!-- Generator: Adobe Illustrator 18.0.0, SVG Export Plug-In . SVG Version: 6.00 Build 0)  -->
<!DOCTYPE svg PUBLIC "-//W3C//DTD SVG 1.1//EN" "http://www.w3.org/Graphics/SVG/1.1/DTD/svg11.dtd">
<svg version="1.1" id="Layer_1" xmlns="http://www.w3.org/2000/svg" xmlns:xlink="http://www.w3.org/1999/xlink" x="0px" y="0px"
	 viewBox="0 0 1 1" enable-background="new 0 0 1 1" xml:space="preserve">
<g>
	<linearGradient id="SVGID_1_" gradientUnits="userSpaceOnUse" x1="0.5" y1="1.0128" x2="0.5" y2="-5.355513e-03">
		<stop  offset="0" style="stop-color:#FFFFFF"/>
		<stop  offset="7.278959e-02" style="stop-color:#F6FBFD"/>
		<stop  offset="0.1922" style="stop-color:#DDF1F6"/>
		<stop  offset="0.2973" style="stop-color:#C2E6EF"/>
		<stop  offset="0.4774" style="stop-color:#96B2C1"/>
		<stop  offset="0.8381" style="stop-color:#414F69"/>
		<stop  offset="1" style="stop-color:#1F2846"/>
	</linearGradient>
	<circle fill="url(#SVGID_1_)" cx="0.5" cy="0.5" r="0.5"/>
	<circle fill="#EDE778" cx="0.7" cy="0.7" r="0"/>
	<circle fill="#E1D8C8" cx="0.3" cy="0.3" r="0"/>
	<rect x="0.4" y="0.2" fill="#E1D8C8" width="0" height="0"/>
	<rect x="0.6" y="0.3" fill="#E1D8C8" width="0" height="0"/>
	<rect x="0.4" y="0.3" fill="#E1D8C8" width="0" height="0"/>
	<rect x="0.6" y="0.1" fill="#E1D8C8" width="0" height="0"/>
	<rect x="0.8" y="0.3" fill="#E1D8C8" width="0" height="0"/>
	<rect x="0.1" y="0.4" fill="#E1D8C8" width="0" height="0"/>
	<rect x="0.2" y="0.2" fill="#E1D8C8" width="0" height="0"/>
	<rect x="0.3" y="0.5" fill="#E1D8C8" width="0" height="0"/>
	<rect x="0.5" y="0.4" fill="#E1D8C8" width="0" height="0"/>
	<rect x="0.7" y="0.5" fill="#E1D8C8" width="0" height="0"/>
	<rect x="0.7" y="0.4" fill="#E1D8C8" width="0" height="0"/>
	<rect x="0.9" y="0.4" fill="#E1D8C8" width="0" height="0"/>
	<rect x="0.8" y="0.2" fill="#E1D8C8" width="0" height="0"/>
	<rect x="0.5" y="0.1" fill="#E1D8C8" width="0" height="0"/>
	<rect x="0.3" y="0.1" fill="#E1D8C8" width="0" height="0"/>
	<rect x="0.5" y="0.3" fill="#E1D8C8" width="0" height="0"/>
	<rect x="0.2" y="0.4" fill="#E1D8C8" width="0" height="0"/>
	<rect x="0.1" y="0.5" fill="#E1D8C8" width="0" height="0"/>
	<rect x="0.7" y="0.3" fill="#E1D8C8" width="0" height="0"/>
	<rect x="0.6" y="0.2" fill="#E1D8C8" width="0" height="0"/>
	<rect x="0.6" y="0.4" fill="#E1D8C8" width="0" height="0"/>
	<rect x="0.5" y="0.4" fill="#E1D8C8" width="0" height="0"/>
	<rect x="0.8" y="0.4" fill="#E1D8C8" width="0" height="0"/>
</g>
</svg>
